<svg xmlns="http://www.w3.org/2000/svg" viewBox="0 0 40 40" role="img" aria-label="Typewriter">
  <defs>
    <linearGradient id="b" x1="5" y1="23" x2="36" y2="37" gradientUnits="userSpaceOnUse">
      <stop offset="0" stop-color="#CBD5E1"/><stop offset="1" stop-color="#E5E7EB"/>
    </linearGradient>
  </defs>
  <path d="M7.2 23.4h25.6c1.5 0 2.7 1.2 2.7 2.7l1.5 6.4c0 2.1-1.7 3.8-3.8 3.8H6.8c-2.1 0-3.8-1.7-3.8-3.8l1.5-6.4c0-1.5 1.2-2.7 2.7-2.7Z" fill="url(#b)"/>
  <rect x="8.5" y="21.1" width="23" height="4" rx="2" fill="#E5E7EB" opacity=".92"/>
  <path d="M11 3.8h16l4.4 4.4v18.1c0 1.3-1 2.3-2.3 2.3H11c-1.3 0-2.3-1-2.3-2.3V6.1c0-1.3 1-2.3 2.3-2.3Z" fill="#111827" stroke="#60A5FA" stroke-width=".9"/>
  <path d="M27 3.8v3.1c0 .9.7 1.6 1.6 1.6h2.8" fill="none" stroke="#60A5FA" stroke-width=".9"/>
  <path d="M15.5 8.7l-2.5 2.1 2.5 2.1M22.5 8.7l2.5 2.1-2.5 2.1M20.2 8.1l-2.4 5.4" fill="none" stroke="#38BDF8" stroke-width="1.7" stroke-linecap="round" stroke-linejoin="round"/>
  <rect x="12" y="16.5" width="2" height=".9" rx=".45" fill="#64748B"/>
  <rect x="15.5" y="16.5" width="10.5" height=".9" rx=".45" fill="#BAE6FD"/>
  <rect x="12" y="19" width="2" height=".9" rx=".45" fill="#64748B"/>
  <rect x="15.5" y="19" width="8" height=".9" rx=".45" fill="#64748B"/>
  <rect x="31.5" y="15.9" width="4.8" height=".8" rx=".4" fill="#38BDF8"/>
  <rect x="31.5" y="18" width="3.8" height=".8" rx=".4" fill="#BAE6FD" opacity=".8"/>
  <g fill="#111827">
    <circle cx="10" cy="30.1" r="1.25"/><circle cx="14" cy="30.1" r="1.25"/><circle cx="18" cy="30.1" r="1.25"/><circle cx="22" cy="30.1" r="1.25"/><circle cx="26" cy="30.1" r="1.25"/>
    <circle cx="12" cy="33" r="1.25"/><circle cx="16" cy="33" r="1.25"/><circle cx="20" cy="33" r="1.25"/><circle cx="24" cy="33" r="1.25"/>
    <rect x="16" y="35" width="8" height="1.4" rx=".7"/>
  </g>
</svg>